<svg xmlns="http://www.w3.org/2000/svg" width="985.024" height="985.026" viewBox="0 0 985.024 985.026">
  <g id="logo" transform="translate(-582.411 28.957)">
    <circle id="Ellipse_1" data-name="Ellipse 1" cx="429.094" cy="429.094" r="429.094" transform="translate(645.828 34.462)" fill="none" stroke="#ddd" stroke-miterlimit="10" stroke-width="1"/>
    <path id="Path_1" data-name="Path 1" d="M1074.922-28.457c-271.73,0-492.011,220.283-492.011,492.013s220.281,492.013,492.011,492.013,492.013-220.283,492.013-492.013S1346.654-28.457,1074.922-28.457ZM758.252,146.886a447.632,447.632,0,0,1,764.111,298.266H1414.347c-6.05-16.081-17.856-32.75-33.184-49.018-32.105-34.072-77.757-56.5-130.762-57.823.233-30.282.444-56.922.444-61.365,0-23.944,1.555-35.916,16.646-35.916H1283.1c6.248,0,6.76-2.818,6.76-7.743V219.906c0-5.638-.512-7.753-6.76-7.753-6.762,0-28.614,2.115-71.792,2.115-44.2,0-66.583-2.115-75.941-2.115-4.165,0-4.686,2.115-4.686,6.343v15.5c0,4.924.521,7.038,5.207,7.038h21.33c9.358,0,11.441,13.383,11.953,35.916l.313,75.2a296.805,296.805,0,0,0-62.57,32.084c-1.288.857-62.132,48.961-104.98,82.86l-.256-187.33c1.562-26.753,4.158-38.726,22.885-38.726h12.489c5.719,0,6.241-2.113,6.241-6.343v-14.78c0-5.638-.521-7.753-6.241-7.753-8.844,0-27.571,2.115-78.552,2.115-52.02,0-68.666-2.115-77.511-2.115-5.2,0-5.718,4.228-5.718,8.458v13.381c0,4.219.521,7.038,6.241,7.038h21.33c14.043,0,17.689,9.859,17.689,45.774,0,9.858.921,205.115.74,229.974-131.636,45.171-152.737-78.335-144.081-87.17a49.965,49.965,0,1,0,27.744-91.514c-43.026,0-90.444,53.58-78.536,105.721.1.454.212.887.316,1.338H627.483A445.949,445.949,0,0,1,758.252,146.886Zm633.341,633.341A447.629,447.629,0,0,1,627.483,481.96h110.65c10.978,27.066,23.615,40.888,32.109,49.016,37.943,36.316,89.058,61.864,150.45,57.365-.248,28.253-.5,53.483-.687,65.348,0,15.5-1.562,32.391-14.563,32.391H881.507c-4.679,0-5.2,1.41-5.2,6.343v14.793c0,5.628.521,7.743,5.2,7.743,10.4,0,26.009-2.115,81.155-2.115,43.689,0,61.9,2.115,71.262,2.115,4.166,0,4.688-2.115,4.688-6.343v-16.9c0-4.228-.521-5.638-4.688-5.638h-14.563c-11.448,0-16.646-7.038-17.166-23.933l-.131-95.485a311.6,311.6,0,0,0,42.427-23.778c1.514-1.007,85.265-67.255,125.369-98.99l.876,211.2c-.527,17.609-2.081,30.981-14.563,30.981H1133.28c-5.2,0-5.72,2.115-5.72,6.343v15.487c0,3.523,1.042,7.048,6.76,7.048,11.969,0,28.615-2.115,81.678-2.115,46.815,0,64.5,2.115,72.817,2.115,5.207,0,5.72-3.525,5.72-7.048V692.424c0-4.228-.513-6.343-4.679-6.343h-17.687c-15.605,0-20.813-9.858-20.813-35.211-.512-38.726-1.553-172.523-1.553-195.056V431.868c0-5.523.049-15.36.122-27.31,113.981-26.8,132.495,84.572,124.293,92.944a49.965,49.965,0,1,0-27.746,91.514c43.028,0,83.747-46.862,77.877-105.853a5.407,5.407,0,0,0-.15-1.2h98.163a445.963,445.963,0,0,1-130.77,298.266Z" transform="translate(0 0)" fill="none" stroke="#ddd" stroke-miterlimit="10" stroke-width="1"/>
  </g>
</svg>
