<?xml version="1.0" encoding="utf-8"?>
<!-- Generator: Adobe Illustrator 23.0.6, SVG Export Plug-In . SVG Version: 6.00 Build 0)  -->
<svg version="1.1" id="Layer_1" xmlns="http://www.w3.org/2000/svg" xmlns:xlink="http://www.w3.org/1999/xlink" x="0px" y="0px"
	 viewBox="0 0 133.1 133.1" style="enable-background:new 0 0 133.1 133.1;" xml:space="preserve">
<style type="text/css">
	.st0{fill:#FFFFFF;}
</style>
<g>
	<g>
		<g>
			<path class="st0" d="M14,66.6c0,20.8,12.1,38.8,29.6,47.3L18.6,45.2C15.6,51.7,14,58.9,14,66.6z"/>
			<path class="st0" d="M102,63.9c0-6.5-2.3-11-4.3-14.5c-2.7-4.3-5.2-8-5.2-12.3c0-4.8,3.7-9.3,8.8-9.3c0.2,0,0.5,0,0.7,0
				C92.7,19.2,80.2,14,66.6,14C48.2,14,32,23.4,22.7,37.7c1.2,0,2.4,0.1,3.4,0.1c5.5,0,14-0.7,14-0.7c2.8-0.2,3.2,4,0.3,4.3
				c0,0-2.8,0.3-6,0.5l19.1,56.9L65,64.4l-8.2-22.4c-2.8-0.2-5.5-0.5-5.5-0.5c-2.8-0.2-2.5-4.5,0.3-4.3c0,0,8.7,0.7,13.8,0.7
				c5.5,0,14-0.7,14-0.7c2.8-0.2,3.2,4,0.3,4.3c0,0-2.9,0.3-6,0.5l19,56.5L98,80.9C100.3,73.6,102,68.4,102,63.9z"/>
			<path class="st0" d="M67.5,71.2L51.7,117c4.7,1.4,9.7,2.1,14.8,2.1c6.1,0,12-1.1,17.5-3c-0.1-0.2-0.3-0.5-0.4-0.7L67.5,71.2z"/>
			<path class="st0" d="M112.7,41.3c0.2,1.7,0.4,3.5,0.4,5.4c0,5.3-1,11.3-4,18.8L93,112c15.6-9.1,26.1-26,26.1-45.4
				C119.1,57.4,116.8,48.8,112.7,41.3z"/>
			<path class="st0" d="M66.6,5.3C32.8,5.3,5.3,32.8,5.3,66.6c0,33.8,27.5,61.3,61.3,61.3c33.8,0,61.3-27.5,61.3-61.3
				C127.8,32.8,100.3,5.3,66.6,5.3z M66.6,125C34.3,125,8.1,98.8,8.1,66.6c0-32.2,26.2-58.5,58.5-58.5c32.2,0,58.5,26.2,58.5,58.5
				C125,98.8,98.8,125,66.6,125z"/>
		</g>
	</g>
</g>
</svg>
