<?xml version="1.0" encoding="utf-8"?>
<!-- Generator: Adobe Illustrator 23.0.4, SVG Export Plug-In . SVG Version: 6.00 Build 0)  -->
<svg version="1.1" id="Layer_1" xmlns="http://www.w3.org/2000/svg" xmlns:xlink="http://www.w3.org/1999/xlink" x="0px" y="0px"
	 viewBox="0 0 80.5 113.3" style="enable-background:new 0 0 80.5 113.3;" xml:space="preserve">
<style type="text/css">
	.st0{fill:#E44F26;}
	.st1{fill:#FFFFFF;}
	.st2{fill:#F1662A;}
	.st3{fill:#EBEBEB;}
</style>
<g id="code_x5F_html5">
	<g>
		<polygon class="st0" points="80.5,22.2 40.3,22.2 40.3,22.2 0,22.2 7.5,104.1 40.3,113.4 40.3,113.4 40.3,113.4 40.3,113.4 
			40.3,113.4 73,104.1 		"/>
		<path class="st1" d="M17.3,5h-4.7v-5.1H7.5v15.3h5.1v-5.1h4.7v5.1h5.1V0h-5.1V5z M53.2,0h-0.5l-3.2,5.2L46.3,0h-0.4h-4.7H41v15.3
			h5V7.7l3.5,5.5l0,0l0,0l0,0l0,0l3.6-5.7v7.8h5V0h-0.3H53.2z M24.7,5.1h4.5v10.1h5.1V5.1h4.5V0H24.7V5.1z M65.9,10.1V0h-5.1v15.3
			h1.3h3.8h7.2v-5.1h-7.2V10.1z"/>
		<polygon class="st2" points="40.3,28.9 40.3,106.4 40.3,106.4 66.8,98.9 73.2,28.9 		"/>
		<polygon class="st1" points="65.6,38.9 14.9,38.9 17.8,69.6 17.8,69.4 52.4,69.4 51.3,82.4 40.3,85.5 29.1,82.3 28.4,74.5 
			18.2,74.5 19.7,90.1 40.3,96 60.9,90.1 63.7,59.4 27,59.4 26,49.1 64.7,49.1 		"/>
		<g>
			<path class="st3" d="M40.3,38.9H14.9l2.8,30.7l0.1-0.2h22.5v-10H27l-0.9-10.3h14.2C40.3,49.1,40.3,38.9,40.3,38.9z M28.4,74.5
				H18.2l1.5,15.7L40.3,96V85.5l-11.2-3.2L28.4,74.5z"/>
		</g>
	</g>
</g>
</svg>
