<?xml version="1.0" encoding="utf-8"?>
<!-- Generator: Adobe Illustrator 23.0.6, SVG Export Plug-In . SVG Version: 6.00 Build 0)  -->
<svg version="1.1" id="Layer_1" xmlns="http://www.w3.org/2000/svg" xmlns:xlink="http://www.w3.org/1999/xlink" x="0px" y="0px"
	 viewBox="0 0 87.2 121" style="enable-background:new 0 0 87.2 121;" xml:space="preserve">
<style type="text/css">
	.st0{fill:#FFFFFF;}
</style>
<g id="code_x5F_html5_1_">
	<g>
		<path class="st0" d="M20.6,8.8h-4.7V3.7h-5.1V19h5.1v-5.1h4.7V19h5.1V3.8h-5.1V8.8z M56.5,3.8H56L52.8,9l-3.2-5.2h-0.4h-4.7h-0.2
			v15.3h5v-7.6l3.5,5.5l0,0l0,0l0,0l0,0l3.6-5.7v7.8h5V3.8h-0.3H56.5z M28,8.9h4.5V19h5.1V8.9h4.5V3.8H28V8.9z M69.2,13.9V3.8h-5.1
			v15.3h1.3h3.8h7.2V14h-7.2V13.9z"/>
		<path class="st0" d="M43.6,26H3.3l7.5,81.9l32.8,9.3l32.7-9.3L83.8,26H43.6z M68,52.9H43.6H29.4l0.9,10.3h13.3H67l-2.8,30.7
			l-20.6,5.9L23,94l-1.5-15.7h10.2l0.7,7.8l11.2,3.2l11-3.1l1.1-13H43.6H21.1v0.2l0-0.2L21,73.4l-2.8-30.7h25.4h25.3L68,52.9z"/>
	</g>
</g>
</svg>
