<?xml version="1.0" encoding="utf-8"?>
<!-- Generator: Adobe Illustrator 23.0.6, SVG Export Plug-In . SVG Version: 6.00 Build 0)  -->
<svg version="1.1" id="Layer_1" xmlns="http://www.w3.org/2000/svg" xmlns:xlink="http://www.w3.org/1999/xlink" x="0px" y="0px"
	 viewBox="0 0 435.7 603" style="enable-background:new 0 0 435.7 603;" xml:space="preserve">
<style type="text/css">
	.st0{fill:#FFFFFF;}
</style>
<g>
	<g>
		<polygon class="st0" points="159.8,45.3 159.8,19.3 97.8,19.3 97.8,95.3 159.8,95.3 159.8,69.3 123.8,69.3 123.8,45.3 		"/>
		<polygon class="st0" points="247.8,19.3 185.8,19.3 185.8,46 211.7,69.3 185.8,69.3 185.8,95.3 247.8,95.3 247.8,70 224.3,45.3 
			247.8,45.3 		"/>
		<polygon class="st0" points="337.8,19.3 275.8,19.3 275.8,46 300.7,69.3 275.8,69.3 275.8,95.3 337.8,95.3 337.8,70 313.3,45.3 
			337.8,45.3 		"/>
	</g>
	<path class="st0" d="M17.8,130l36.4,408.3l163.4,45.3l163.8-45.4L417.8,130H17.8z M338.6,260.4L218.1,314H334l-13.5,154.5
		L218.1,497v-0.1l-0.4,0.1L115,468.6l-7-78.6h50.2l3.7,39.9l55.8,15l0.4-0.1v0.1l55.6-15.5l5.6-65.4h-61.2H105.5l-4.4-50l117-50.1
		l8.2-3.5h-8.2H96.7l-4.5-50h125.4h0.5h124.8L338.6,260.4z"/>
</g>
</svg>
