<?xml version="1.0" encoding="utf-8"?>
<!-- Generator: Adobe Illustrator 23.1.1, SVG Export Plug-In . SVG Version: 6.00 Build 0)  -->
<svg version="1.1" id="Layer_1" xmlns="http://www.w3.org/2000/svg" xmlns:xlink="http://www.w3.org/1999/xlink" x="0px" y="0px"
	 viewBox="0 0 525 525" enable-background="new 0 0 525 525" xml:space="preserve">
<path d="M262.5,12.5c-138.1,0-250,111.9-250,250s111.9,250,250,250s250-111.9,250-250S400.6,12.5,262.5,12.5z M101.6,101.6
	c20.9-20.9,45.2-37.3,72.3-48.8c28-11.9,57.8-17.9,88.6-17.9c30.7,0,60.5,6,88.6,17.9c27.1,11.5,51.4,27.9,72.3,48.8
	c20.9,20.9,37.3,45.2,48.8,72.3c10.7,25.2,16.6,51.8,17.7,79.2h-7.3c-2.3-55.3-24.9-107-64.3-146.4c-41.6-41.6-96.9-64.5-155.8-64.5
	s-114.2,22.9-155.8,64.5c-39.4,39.4-62,91.1-64.3,146.4h-7.3c1.1-27.4,7-54,17.7-79.2C64.3,146.8,80.7,122.5,101.6,101.6z
	 M107.7,296.8c19.3,18.5,45.3,31.4,76.4,29.1c-0.1,14.4-0.3,27.2-0.3,33.2c0,7.9-0.8,16.5-7.4,16.5h-12.2c-2.4,0-2.6,0.7-2.6,3.2
	v7.5c0,2.9,0.3,3.9,2.6,3.9c5.3,0,13.2-1.1,41.2-1.1c22.2,0,31.5,1.1,36.2,1.1c2.1,0,2.4-1.1,2.4-3.2v-8.6c0-2.1-0.3-2.9-2.4-2.9
	h-7.4c-5.8,0-8.5-3.6-8.7-12.2l-0.1-48.5c7.1-3.3,14.3-7.2,21.6-12.1c0.8-0.5,43.3-34.2,63.7-50.3l0.4,107.3
	c-0.3,8.9-1.1,15.7-7.4,15.7h-11.6c-2.6,0-2.9,1.1-2.9,3.2v7.9c0,1.8,0.5,3.6,3.4,3.6c6.1,0,14.5-1.1,41.5-1.1
	c23.8,0,32.8,1.1,37,1.1c2.6,0,2.9-1.8,2.9-3.6v-7.9c0-2.1-0.3-3.2-2.4-3.2h-9c-7.9,0-10.6-5-10.6-17.9c-0.3-19.7-0.8-87.7-0.8-99.1
	v-12.2c0-2.8,0-7.8,0.1-13.9c57.9-13.6,67.3,43,63.2,47.2c-4-2.7-8.9-4.3-14.1-4.3c-14,0-25.4,11.4-25.4,25.4
	c0,14,11.4,25.4,25.4,25.4c21.9,0,42.6-23.8,39.6-53.8c0,0,0-0.2-0.1-0.6h38.1c-2.3,54.1-24.4,104.7-63,143.2
	c-40.8,40.8-94.9,63.2-152.6,63.2s-111.8-22.4-152.6-63.2c-38.5-38.5-60.7-89.1-63-143.2h44.4C96.9,285.6,103.4,292.6,107.7,296.8z
	 M435,253.1c-3.1-8.2-9.1-16.6-16.9-24.9c-16.3-17.3-39.5-28.7-66.4-29.4c0.1-15.4,0.2-28.9,0.2-31.2c0-12.2,0.8-18.2,8.5-18.2h7.9
	c3.2,0,3.4-1.4,3.4-3.9v-6.8c0-2.9-0.3-3.9-3.4-3.9c-3.4,0-14.5,1.1-36.5,1.1c-22.5,0-33.8-1.1-38.6-1.1c-2.1,0-2.4,1.1-2.4,3.2v7.9
	c0,2.5,0.3,3.6,2.6,3.6h10.8c4.8,0,5.8,6.8,6.1,18.2l0.2,38.2c-10.4,3.8-21,9.1-31.8,16.3c-0.7,0.4-31.6,24.9-53.3,42.1l-0.1-95.2
	c0.8-13.6,2.1-19.7,11.6-19.7h6.3c2.9,0,3.2-1.1,3.2-3.2v-7.5c0-2.9-0.3-3.9-3.2-3.9c-4.5,0-14,1.1-39.9,1.1
	c-26.4,0-34.9-1.1-39.4-1.1c-2.6,0-2.9,2.1-2.9,4.3v6.8c0,2.1,0.3,3.6,3.2,3.6h10.8c7.1,0,9,5,9,23.3c0,5,0.5,104.2,0.4,116.9
	c-66.9,23-77.6-39.8-73.2-44.3c4,2.7,8.9,4.3,14.1,4.3c14,0,25.4-11.4,25.4-25.4c0-14-11.4-25.4-25.4-25.4
	c-21.9,0-46,27.2-39.9,53.7c0.1,0.2,0.1,0.5,0.2,0.7H46.9c2.3-54.1,24.4-104.7,63-143.2c40.8-40.8,94.9-63.2,152.6-63.2
	s111.8,22.4,152.6,63.2c38.5,38.5,60.7,89.1,63,143.2H435z M423.4,423.4c-20.9,20.9-45.2,37.3-72.3,48.8
	c-28,11.9-57.8,17.9-88.6,17.9c-30.7,0-60.5-6-88.6-17.9c-27.1-11.5-51.4-27.9-72.3-48.8c-20.9-20.9-37.3-45.2-48.8-72.3
	c-10.7-25.2-16.6-51.8-17.7-79.2h7.3c2.3,55.3,24.9,107,64.3,146.4c41.6,41.6,96.9,64.5,155.8,64.5s114.2-22.9,155.8-64.5
	c39.4-39.4,62-91.1,64.3-146.4h7.3c-1.1,27.4-7,54-17.7,79.2C460.7,378.2,444.3,402.5,423.4,423.4z"/>
</svg>
