<?xml version="1.0" encoding="utf-8"?>
<!-- Generator: Adobe Illustrator 23.0.6, SVG Export Plug-In . SVG Version: 6.00 Build 0)  -->
<svg version="1.1"
	 id="svg2" xmlns:cc="http://creativecommons.org/ns#" xmlns:dc="http://purl.org/dc/elements/1.1/" xmlns:inkscape="http://www.inkscape.org/namespaces/inkscape" xmlns:rdf="http://www.w3.org/1999/02/22-rdf-syntax-ns#" xmlns:sodipodi="http://sodipodi.sourceforge.net/DTD/sodipodi-0.dtd" xmlns:svg="http://www.w3.org/2000/svg"
	 xmlns="http://www.w3.org/2000/svg" xmlns:xlink="http://www.w3.org/1999/xlink" x="0px" y="0px" viewBox="0 0 1775.1 509.4"
	 style="enable-background:new 0 0 1775.1 509.4;" xml:space="preserve">
<style type="text/css">
	.st0{fill:#1E2E3B;}
	.st1{fill:#FFFFFF;}
</style>
<sodipodi:namedview  bordercolor="#666666" borderopacity="1" gridtolerance="10" guidetolerance="10" id="namedview4" inkscape:current-layer="svg2" inkscape:cx="1334.4852" inkscape:cy="92.233937" inkscape:pageopacity="0" inkscape:pageshadow="2" inkscape:window-height="1000" inkscape:window-maximized="1" inkscape:window-width="1680" inkscape:window-x="-8" inkscape:window-y="-8" inkscape:zoom="0.34263606" objecttolerance="10" pagecolor="#ffffff" showgrid="false">
	</sodipodi:namedview>
<g id="g12" transform="matrix(1.25,0,0,-1.25,225.50677,750.09016)" inkscape:groupmode="layer" inkscape:label="Logo jQuery">
	<path id="signet" class="st0" d="M7.5,523l-6.8-9.3c-9-13.3-9.9-29.8-3.6-44.5c6.6-15.6,20.1-27.8,35.9-33.6c0.7-0.2,1.3-0.5,2-0.7
		l0.9-0.3c0.9-0.3,1.9-0.6,2.8-0.8c43.7-8.4,55.5,22.4,58.7,26.9c-10.4-14.9-27.8-18.5-49.2-13.3c-1.7,0.4-3.5,1-5.1,1.6
		c-2.1,0.8-4.2,1.6-6.2,2.6c-3.8,1.8-7.4,4.1-10.8,6.6C6.9,472.8-5,500.5,7.5,523L7.5,523z M-42,512.2l-12.5-17.6
		c-15.3-22-14.5-51.5-2.5-74.9c2-3.9,4.2-7.7,6.8-11.3c2.3-3.3,4.9-7.2,7.9-9.8c1.1-1.2,2.2-2.4,3.4-3.6l0.9-0.9
		c1.1-1.1,2.3-2.2,3.5-3.3l0.1-0.1l0,0c1.3-1.2,2.7-2.3,4.1-3.4l0.9-0.7c1.4-1.1,2.8-2.1,4.3-3.1l0.1-0.1c0.6-0.4,1.3-0.9,2-1.3
		l0.9-0.6c1-0.7,2.1-1.3,3.2-1.9l0.4-0.3c0.9-0.5,1.9-1.1,2.8-1.6l1-0.5c0.7-0.3,1.3-0.7,2-1l0.3-0.2c1.3-0.7,2.7-1.3,4.1-1.9
		l0.9-0.4c1.1-0.5,2.2-0.9,3.3-1.4c0.5-0.2,1-0.4,1.4-0.5c1-0.4,2.1-0.7,3.1-1.1c0.5-0.2,0.9-0.3,1.4-0.4c1.5-0.5,2.9-1,4.5-1.3
		c79.1-13.1,97.3,47.8,97.3,47.8c-16.5-23.7-48.3-35-82.3-26.2c-1.5,0.4-3,0.8-4.5,1.3l-1.3,0.4c-1.1,0.3-2.1,0.7-3.1,1.1
		c-0.5,0.2-0.9,0.3-1.4,0.5c-1.1,0.4-2.3,0.9-3.4,1.4l-0.9,0.4c-1.4,0.6-2.7,1.3-4.1,1.9c-0.7,0.3-1.4,0.7-2.1,1l-1.2,0.6
		c-0.9,0.5-1.8,1-2.7,1.5l-0.6,0.4c-1.1,0.6-2.1,1.3-3.2,1.9l-1,0.6c-0.7,0.4-1.4,0.9-2.1,1.4c-1.5,1-2.9,2.1-4.3,3.1l-1,0.7
		c-14.9,11.7-26.7,27.8-32.3,46C-53.5,473.8-52.2,495-42,512.2L-42,512.2z M-103.8,489.9l-16.5-21c-21.2-30.4-18.5-70-2.4-102.4
		c0.4-0.8,0.8-1.5,1.2-2.3c0.3-0.5,0.5-1,0.7-1.4l0.5-0.8c0.3-0.5,0.6-1,0.8-1.5c0.5-0.9,1-1.8,1.6-2.7c0.3-0.5,0.5-1,0.8-1.4
		c0.6-0.9,1.2-1.9,1.8-2.8l0.8-1.2c0.8-1.3,1.7-2.5,2.6-3.7l0-0.1l0.4-0.6c0.8-1.1,1.6-2.1,2.4-3.1l0.9-1.1c0.7-0.9,1.5-1.8,2.2-2.7
		l0.8-1c1-1.2,2-2.3,3.1-3.5l0.1-0.1l0.1-0.1c1-1.1,2-2.2,3.1-3.3l1-1c0.8-0.8,1.7-1.6,2.5-2.4l1-1c1.1-1,2.2-2.1,3.4-3.1l0.1,0
		l0.6-0.5c1-0.9,2.1-1.7,3.1-2.6l1.2-1c0.8-0.7,1.7-1.4,2.6-2l1.4-1c1-0.7,1.9-1.4,2.9-2.1l1-0.7l0.3-0.2c0.9-0.6,1.9-1.2,2.8-1.8
		l1.2-0.8c1.4-0.9,2.9-1.8,4.4-2.7l1.2-0.7c1.1-0.6,2.2-1.3,3.3-1.8c0.6-0.3,1.2-0.6,1.8-0.9c0.8-0.4,1.5-0.8,2.3-1.2l0.6-0.3
		l0.9-0.4c1.2-0.6,2.5-1.2,3.7-1.7l0.8-0.4c1.4-0.6,2.9-1.2,4.3-1.8l1-0.4c1.4-0.5,2.7-1,4.1-1.5l0.5-0.2c1.5-0.5,3-1,4.6-1.5
		l1.1-0.3c1.6-0.5,3.1-1,4.7-1.3C68.2,276.8,97.9,357,97.9,357c-25-32.6-69.3-41.2-111.4-31.6c-1.6,0.4-3.2,0.9-4.7,1.3l-1.2,0.4
		c-1.5,0.5-3,0.9-4.5,1.4l-0.6,0.2c-1.3,0.5-2.7,1-4,1.5l-1.1,0.4c-1.4,0.6-2.9,1.1-4.3,1.8l-0.9,0.4c-1.2,0.6-2.4,1.1-3.6,1.7
		l-1,0.5c-0.9,0.5-1.8,0.9-2.8,1.4c-0.6,0.3-1.3,0.7-1.9,1c-1.1,0.6-2.3,1.2-3.4,1.9l-1.1,0.6c-1.5,0.9-2.9,1.8-4.4,2.7l-1.2,0.8
		c-1,0.7-2.1,1.3-3.1,2.1l-1,0.7c-1,0.7-2,1.4-3,2.1l-1.3,1c-0.9,0.7-1.8,1.4-2.7,2.1l-1.2,1c-1.1,0.9-2.2,1.8-3.3,2.8l-0.4,0.3
		c-1.2,1-2.4,2.1-3.5,3.2l-1,1c-0.8,0.8-1.7,1.6-2.5,2.5l-1,1c-1,1.1-2.1,2.2-3.1,3.3l-0.2,0.2c-1.1,1.2-2.1,2.3-3.1,3.5l-0.8,1
		c-0.8,0.9-1.5,1.8-2.3,2.8l-0.8,1c-0.9,1.1-1.8,2.3-2.6,3.5C-114,410-122.4,453.9-103.8,489.9L-103.8,489.9z"/>
	<path id="jQuery" class="st1" d="M400.9,546.4c-76.7,0-110-55.2-122.7-115.3c-12.7-60.5,3.9-113.5,80.2-113l60.2,0.2l56.2,0.2
		c2.2,0,4.4,1.7,4.9,3.8l9.8,37.4c0.5,2.1-0.8,3.8-3,3.8l-9.4,0l-9.4,0.1c-1.8,0-2.9,1.2-2.7,2.8l0.2,0.9c0,0,21.2,51.6,26.1,81.4
		C498,488.6,478,546.4,400.9,546.4L400.9,546.4z M1192.5,524.4l-12.4-0.1c-2.2,0-5.7,0-7.9,0h-32.8c-2.2,0-4.9-1.5-6.2-3.3
		l-72.5-106.1c-1.2-1.8-2.6-1.5-3.1,0.6l-5.3,23.4c-0.5,2.1-2.7,3.8-4.8,3.8h-46.6c-2.2,0-3.4-1.7-2.9-3.8l20.9-73.1
		c0.6-2.1,0.7-5.5,0.1-7.6l-9.1-35.4c-0.5-2.1,0.8-3.8,3-3.8h46c2.2,0,4.4,1.7,4.9,3.8l9.1,35.4c0.5,2.1,2,5.2,3.3,7l117.7,156.1
		C1195.4,523,1194.7,524.4,1192.5,524.4L1192.5,524.4z M792.7,500.9c-75.8,0-93.8-46-103.8-92.5c-10.1-47.3-9.2-91.6,69.2-91.6h2.8
		h0.7h5.1h0.9c0.8,0,1.6,0,2.4,0h0.6c3.1,0,6.2,0,9.4,0h0.2c20.7,0.1,41.5,0.2,49.9,0.3c2.2,0,4.3,1.8,4.7,3.9l3.2,15.5l0.6,3
		l3.8,18.5c0.4,2.1-1,3.9-3.2,3.9h-70.5c-28,0-36.4,7.4-33.3,29.3h112.8h0.1c1.8,0,3.4,1.3,4.1,2.9l0.3,1h0
		C869.3,458.4,864.4,500.9,792.7,500.9L792.7,500.9z M394.5,499.4c42.3,1.2,50.6-30.3,39.9-66.4l-1.1-3.8v0l-8.5-30.2l-8.5-30.2
		c-0.6-2.1-2.9-3.8-5-3.8h-45c-34.2,0-42.5,26.7-34.2,66.2c8.3,40.3,24.6,65.4,58.3,67.9C391.8,499.2,393.2,499.3,394.5,499.4
		L394.5,499.4z M222.9,498.7c-2.2,0-4.3-1.8-4.8-3.9l-4.1-17.9l-4.1-17.9c-0.5-2.1,0.9-3.9,3.1-3.9h43.2c2.2,0,4.3,1.7,4.8,3.9
		l3.9,17.9l3.9,17.9c0.5,2.1-0.9,3.9-3.1,3.9H222.9L222.9,498.7z M535.4,498.2c-2.2,0-4.3-1.7-4.7-3.9l-8.6-40.8l-8.6-40.8v0
		l-0.8-3.8c-9.9-45.3-7.3-88.5,46.6-89.8c0.9,0,1.6,0,1.6,0h84.6c2.2,0,4.3,1.7,4.7,3.9l18.3,85.7l18.3,85.7c0.4,2.1-1,3.9-3.1,3.9
		h-39c-2.2,0-4.3-1.7-4.8-3.9l-13.8-64l-13.9-64.1c-0.5-2.1-2.6-3.9-4.7-3.9h-27.6c-27.3,0-24.2,18.9-18.6,44.8l0.2,0.8l0.6,3.3
		l0.1,0.6l1.2,6.6l1.3,7.1c0.4,2.1,1,5.3,1.4,7.3l6.3,30.8l6.3,30.8c0.4,2.1-1,3.9-3.1,3.9H535.4z M904.9,497.8
		c-2.2,0-4.3-1.7-4.8-3.9l-1.6-7.5l-1.9-8.9l-0.5-2.5l-16.2-76.1l-15.4-72.2c-0.5-2.1-0.6-4.7-0.3-5.8c0.3-1.1,4.4-1.9,6.6-1.9h32.6
		c2.2,0,4.9,0.4,6.1,0.8c1.2,0.5,2.9,4.7,3.4,6.9l5.8,28.6l5.8,28.6v0l0.8,3.8l7,32.9l6.2,29c0.5,2.1,2.6,3.8,4.7,3.8l102.4,0
		c2.2,0,3.5,1.7,3,3.9l-1.8,7.4l-1.8,7.6l-0.9,3.9c-3.5,13.6-13.8,21.5-36.1,21.5l-34.8,0l-32,0L904.9,497.8L904.9,497.8z
		 M782.7,457.9c24.3,0,29-11.9,27.4-25.2c-0.3-2.3-2.4-4.1-4.6-4.1h-59.1c-2,0-3.1,1.4-2.8,3.1l0,0.1l0,0.2c0,0,0.1,0.4,0.2,1
		C749.6,448.1,761.1,457.9,782.7,457.9L782.7,457.9z M210.1,442.9c-2.2,0-4.3-1.7-4.8-3.9l-6.1-26.9l-6.1-26.9
		c-0.5-2.1-1.2-5.6-1.7-7.7l-5.8-27.4l-5.8-27.4c-0.5-2.1-1.4-5.5-2.1-7.6c0,0-8.1-24-21.6-23.7c-0.6,0-1.1,0-1.7,0
		c-6.6,0.1-11.7,0.2-11.7,0.2c-2.2,0-4.3-1.7-4.8-3.8l-4.5-18.8l-4.5-18.8c-0.5-2.1,0.9-3.9,3-3.9c7.7-0.1,24.9-0.3,35.3-0.3
		c33.9,0,51.7,18.8,63.2,72.8l13.4,62l12.6,58.1c0.5,2.1-1,3.9-3.1,3.9L210.1,442.9L210.1,442.9z"/>
</g>
</svg>
