<?xml version="1.0" encoding="utf-8"?>
<!-- Generator: Adobe Illustrator 23.1.1, SVG Export Plug-In . SVG Version: 6.00 Build 0)  -->
<svg version="1.1" id="Layer_1" xmlns="http://www.w3.org/2000/svg" xmlns:xlink="http://www.w3.org/1999/xlink" x="0px" y="0px"
	 viewBox="0 0 592 182" enable-background="new 0 0 592 182" xml:space="preserve">
<g>
	<path d="M14.2,95c0-3.5,0-7,0-10.6c0.1-0.3,0.2-0.7,0.2-1c0.5-3.6,0.8-7.3,1.6-10.9c3.5-16.3,11.4-30.2,23.5-41.6
		C52.2,19,67.1,11.8,84.4,9.5C86.2,9.2,88,9,89.8,8.8c3.5,0,7,0,10.6,0c2.1,0.3,4.2,0.5,6.3,0.8c18.7,2.8,34.8,11,47.6,24.9
		c18.1,19.7,24.9,43,20.5,69.3c-2.9,17.4-10.9,32.2-23.8,44.3c-19.6,18.4-42.9,25.5-69.3,21.3c-19-3-34.8-12.1-47.5-26.5
		c-10.8-12.2-17.2-26.5-19.4-42.7C14.6,98.5,14.4,96.7,14.2,95z M46.8,84.2c0,0.8,0,1.2,0,1.7c0.2,5.6,4.4,11.3,9.7,13.1
		c4.2,1.4,8.4,0.8,12.6-0.4c0.9-0.3,1.1-0.6,1.1-1.5c-0.1-3.4-0.1-6.8-0.1-10.2c0-8.6,0-17.3-0.1-25.9c0-1.7-0.2-3.4-0.5-5
		c-0.3-1.6-1-2.1-2.6-2.1c-0.4,0-0.8,0-1.2,0c-3.3-0.1-3.1,0.6-3.1-3.2c0-1.3,0.3-1.5,1.7-1.5c7.5,0,14.9,0.2,22.4,0
		c3.5-0.1,3-0.2,3,2.8c0,1.9,0,1.9-1.9,1.8c-2.8-0.1-4.2,0-4.7,4.3c0,0.2,0,0.5,0,0.7c0,2.5,0,5,0,7.5c0,7.4,0,14.8,0,22.2
		c0,0.4,0,0.8,0,1.5c0.4-0.3,0.6-0.4,0.8-0.6c2.8-2.2,5.7-4.4,8.5-6.7c5.3-4.3,10.5-8.6,17.1-10.9c0.3-0.1,0.5-0.7,0.5-1.1
		c0-3.7,0-7.4,0-11c0-1.4-0.2-2.8-0.4-4.2c-0.2-1.1-0.8-1.8-2.1-1.7c-0.8,0.1-1.5,0-2.3,0c-1,0.1-1.5-0.2-1.4-1.3
		c0.1-0.7,0.1-1.4,0-2.2c-0.1-1,0.4-1.2,1.4-1.2c7.5,0.1,14.9,0.1,22.4,0c1.8,0,1.9,0,1.9,1.8c0,3.2,0.1,2.9-2.8,2.9
		c-2.5,0-3.3,0.7-3.4,3.2c-0.1,2-0.1,4-0.1,6c0,2.1,0,4.1,0,6.3c12.1,0.8,20.9,6.6,26.3,17.2c5.1,0,10,0,14.9,0
		c0-16-8.4-39.7-30.5-54.7c-22.8-15.5-52.8-16.2-76.1-1.3c-20.2,13-30.9,31.8-32.8,55.8c4.7,0,9.1,0,13.4,0c0.2-2.1,0.3-4.2,0.8-6.1
		c1.5-5.4,4.6-9.4,10.3-10.7c4.5-1,8.8,1.9,9.7,6.4c0.9,4.3-1.9,8.5-6.3,9.4C51,85.9,49,85.5,46.8,84.2z M25.3,92.8
		c1.9,24.2,12.6,43,32.8,56c23.5,15.1,53.9,14.3,76.7-1.8c18.6-13.1,28.3-31.3,30.1-54c-4.7,0-9.1,0-13.6,0c0.2,2.7,0,5.3-1,7.7
		c-2,4.9-5.2,8.5-10.8,9.1c-3.5,0.4-6.6-1.4-8-4.5c-1.5-3.1-0.9-6.8,1.5-9.2c2.4-2.4,6-3.1,9.2-1.6c0.3,0.2,0.7,0.3,1.1,0.5
		c0-0.6,0.1-1.1,0.1-1.5c-0.3-6.4-5-12.2-11.3-13.6c-2.6-0.6-5.2-0.4-7.7,0c-1,0.2-1.3,0.6-1.3,1.6c0.1,11,0.1,22,0.2,33
		c0,2.6,0,5.3,0.3,7.9c0.2,2.3,1.2,3,3.5,3c3.3,0,3.3,0,3.3,3.3c0,1.1-0.4,1.5-1.5,1.4c-4-0.2-7.9-0.3-11.9-0.3c-4,0-8,0.2-12,0.3
		c-1.3,0-1.6-0.2-1.6-1.5c0-0.7,0-1.4,0-2.2c0-0.8,0.3-1.1,1.1-1.1c0.8,0,1.6,0,2.4,0c2.6,0,3.2-0.4,3.3-3.1
		c0.2-3.6,0.1-7.2,0.1-10.8c0-7.8,0-15.7-0.1-23.5c0-0.4,0-0.8,0-1.4c-0.5,0.3-0.7,0.5-1,0.7c-4.2,3.3-8.3,6.6-12.5,9.9
		c-4,3.1-7.8,6.5-12.5,8.6c-0.8,0.3-1,0.7-1,1.5c0,4.8,0,9.5,0.1,14.3c0,0.6,0.1,1.3,0.2,1.9c0.3,1.3,1.1,1.9,2.4,1.9
		c0.7,0,1.4,0,2.2,0c0.7,0,1,0.3,1,1c0,0.8-0.1,1.6,0,2.4c0.1,1-0.3,1.4-1.4,1.4c-4.6-0.2-9.3-0.3-13.9-0.3c-3.2,0-6.4,0.2-9.6,0.3
		c-0.9,0-1.4-0.3-1.3-1.2c0-0.8,0-1.7,0-2.5c0-0.7,0.3-1,1-1c0.9,0,1.8,0,2.6,0c2.4,0,3.2-0.6,3.3-3.1c0.2-4.1,0.2-8.2,0.2-12.2
		c0-0.1-0.1-0.2-0.2-0.4c-6.2,0.4-12.1-0.8-17.5-4c-5.4-3.2-9.4-7.6-11.9-13C35.4,92.8,30.5,92.8,25.3,92.8z M21.4,93
		c2.2,26.8,14.4,47.4,37.7,60.8c25.2,14.5,56.7,12.4,79.9-5.1c18.4-13.9,28.1-32.7,29.7-55.7c-1.1,0-1.9,0-2.7,0
		c-1.4,36.2-31.7,67.3-70.4,67.6c-15.5,0.1-29.7-4.4-42.1-13.6c-18-13.4-27.6-31.6-29.2-54C23.4,93,22.6,93,21.4,93z M168.8,86.4
		c-2.1-26.1-13.8-46.4-36.2-60c-24.5-14.9-55.1-13.9-79,2.6c-20,13.8-30.4,33.2-32.2,57.4c1.1,0,1.9,0,2.8,0
		c1.2-18.8,8.3-34.8,21.8-47.8C59.6,25.6,76,19,94.8,18.9c16.2-0.1,30.9,4.8,43.6,14.9c17,13.4,26,31.1,27.5,52.7
		C166.8,86.4,167.7,86.4,168.8,86.4z"/>
</g>
<g>
	<path d="M214.3,105.9l-1,6.8h-10.8l8.6-43.5h15.1l8.5,43.5h-10.8l-1-6.8H214.3z M218.5,76.4l-3.1,22.2h6.5L218.5,76.4z"/>
	<path d="M256.7,112.7L247,84.6l0.2,28.1h-8.9V69.3h11.5l9.5,29.1l-0.2-29.1h8.9v43.5H256.7z"/>
	<path d="M274.5,69.3h14.7c5.1,0,8,0.8,10.2,3c2.3,2.2,3,4.8,3,10.8v15.8c0,5.8-0.8,8.6-3,10.8c-2.2,2.1-5.2,3-10.2,3h-14.7V69.3z
		 M287.5,105.4c3.5,0,4.5-1.2,4.5-5.7V82.4c0-4.5-1-5.7-4.5-5.7h-2.6v28.8H287.5z"/>
	<path d="M318.9,112.7h-10.4V69.3h14.9c5,0,7.5,0.6,9.6,2.2c2.2,1.7,3.3,4.6,3.3,9c0,6.2-1.2,8.3-5.3,9.5c3.8,0.8,5.2,2.9,5.2,8.4
		v8.5c0,2.9,0.4,4.2,1.9,5.9h-11c-0.8-1.4-1.1-2.5-1.1-4.2v-8c0-4-1.4-5.9-4.4-5.9h-2.5V112.7z M321.3,87.2c3,0,4.6-2,4.6-5.5
		c0-3.4-1.4-5-4.2-5h-2.9v10.6H321.3z"/>
	<path d="M364.8,77.2h-11.2v9.5h10.6v8h-10.6v10.2h12.2v8h-22.6V69.3h21.6V77.2z"/>
	<path d="M376,112.7l-6.7-43.5h10.2l3.1,30.4l4.1-30.4H397l4.2,30.4l3.1-30.4h10l-6.6,43.5h-11.4l-4.4-26.6l-4.1,26.6H376z"/>
	<path d="M441.2,95.1v17.7h-10.4V69.3h10.4v17.2h6.3V69.3h10.4v43.5h-10.4V95.1H441.2z"/>
	<path d="M474.2,105.9l-1,6.8h-10.8l8.6-43.5h15.1l8.5,43.5h-10.8l-1-6.8H474.2z M478.3,76.4l-3.1,22.2h6.5L478.3,76.4z"/>
	<path d="M525.7,88v24.7h-9.3v-1.6c-2.4,1.6-4.4,2.2-7.4,2.2c-3.7,0-6.6-1.1-8.3-3.3c-2-2.3-2.6-5.1-2.6-10.8V82.6
		c0-5.7,0.8-8.5,3.3-10.8c2.3-2.2,6-3.3,10.8-3.3c4.6,0,8.1,1,10.5,2.9c2.4,2,3.3,4.5,3.3,9.8v2h-10.4v-2.5c0-3.3-1-4.8-3.5-4.8
		c-2.5,0-3.5,1.4-3.5,4.8v20.3c0,3.3,1.1,4.8,3.6,4.8c2.5,0,3.7-1.6,3.7-4.8V96h-4.6v-8H525.7z"/>
	<path d="M550.4,112.7l-9.7-28.1l0.2,28.1H532V69.3h11.5l9.5,29.1l-0.2-29.1h8.9v43.5H550.4z"/>
	<path d="M578.6,112.7h-10.4V69.3h10.4V112.7z"/>
</g>
</svg>
