<?xml version="1.0" encoding="utf-8"?>
<!-- Generator: Adobe Illustrator 23.0.6, SVG Export Plug-In . SVG Version: 6.00 Build 0)  -->
<svg version="1.1" id="Layer_1" xmlns="http://www.w3.org/2000/svg" xmlns:xlink="http://www.w3.org/1999/xlink" x="0px" y="0px"
	 viewBox="0 0 105 58.4" style="enable-background:new 0 0 105 58.4;" xml:space="preserve">
<style type="text/css">
	.st0{fill:#FFFFFF;}
</style>
<g>
	<path class="st0" d="M12.2,15.3h14.2c4.2,0,7.2,1.2,9.1,3.6c1.9,2.4,2.5,5.6,1.9,9.7c-0.2,1.9-0.8,3.7-1.6,5.5
		c-0.8,1.8-1.9,3.4-3.4,4.9c-1.8,1.8-3.7,3-5.7,3.5s-4.1,0.7-6.3,0.7H14l-2,10.1H4.6L12.2,15.3L12.2,15.3 M18.4,21.4l-3.2,15.9
		c0.2,0,0.4,0.1,0.6,0.1c0.2,0,0.5,0,0.7,0c3.4,0,6.2-0.3,8.5-1s3.8-3.3,4.6-7.7c0.6-3.7,0-5.8-1.9-6.4s-4.2-0.8-7-0.8
		c-0.4,0-0.8,0.1-1.2,0.1C19.1,21.4,18.7,21.4,18.4,21.4L18.4,21.4"/>
	<path class="st0" d="M45.7,5.2H53l-2.1,10.1h6.6c3.6,0.1,6.3,0.8,8.1,2.2c1.8,1.4,2.3,4.1,1.6,8.1l-3.6,17.7h-7.4l3.4-16.9
		c0.4-1.8,0.2-3-0.3-3.8c-0.6-0.7-1.8-1.1-3.7-1.1l-5.9-0.1l-4.3,21.8h-7.3L45.7,5.2L45.7,5.2"/>
	<path class="st0" d="M75,15.3h14.2c4.2,0,7.2,1.2,9.1,3.6s2.5,5.6,1.9,9.7c-0.2,1.9-0.8,3.7-1.6,5.5c-0.8,1.8-1.9,3.4-3.4,4.9
		c-1.8,1.8-3.7,3-5.7,3.5s-4.1,0.7-6.3,0.7h-6.4l-2,10.1h-7.4L75,15.3L75,15.3 M81.2,21.4L78,37.3c0.2,0,0.4,0.1,0.6,0.1
		s0.5,0,0.7,0c3.4,0,6.2-0.3,8.5-1s3.8-3.3,4.6-7.7c0.6-3.7,0-5.8-1.9-6.4s-4.2-0.8-7-0.8c-0.4,0-0.8,0.1-1.2,0.1
		C81.9,21.4,81.5,21.4,81.2,21.4L81.2,21.4"/>
</g>
</svg>
